# xmcd CD database file
# Copyright (C) 1997 Ti Kan
# 
# Track frame offsets:
#     183
#     14855
#     29568
#     40225
#     49585
#     61443
#     74223
#     92945
#     110008
#     117758
#     128870
#     138655
# 
# Disc length: 1981 seconds
# 
# Revision: 1
# Processed by: cddbd v1.4b41PL1 Copyright (c) Steve Scherf et al.
# Submitted via: DiscPlay 4.0.4
# 
DISCID=be07bb0c
DTITLE=Vin cius - Vin cius-80 Anos De Poesia
DYEAR=1900
DGENRE=
TTITLE0=Essa Menina
TTITLE1=A Felicidade
TTITLE2=Que Maravilha
TTITLE3=Chorando Pr  Pixinguinha
TTITLE4=Samba De Gesse
TTITLE5=Melancia e Coc  Verde
TTITLE6=Que Mart rio
TTITLE7=Minha Namorada
TTITLE8=A Vez Do Dombe
TTITLE9=O Poeta E O Aprendiz
TTITLE10=Canto De Oxaluf 
TTITLE11=Lamento No Morro
EXTD=
EXTT0=
EXTT1=
EXTT2=
EXTT3=
EXTT4=
EXTT5=
EXTT6=
EXTT7=
EXTT8=
EXTT9=
EXTT10=
EXTT11=
PLAYORDER=
